<svg xmlns="http://www.w3.org/2000/svg" width="1200" height="1200" viewBox="0 0 1200 1200">
  <metadata><?xpacket begin="﻿" id="W5M0MpCehiHzreSzNTczkc9d"?>
<x:xmpmeta xmlns:x="adobe:ns:meta/" x:xmptk="Adobe XMP Core 5.6-c140 79.160451, 2017/05/06-01:08:21        ">
   <rdf:RDF xmlns:rdf="http://www.w3.org/1999/02/22-rdf-syntax-ns#">
      <rdf:Description rdf:about=""/>
   </rdf:RDF>
</x:xmpmeta>
                                                                                                    
                                                                                                    
                                                                                                    
                                                                                                    
                                                                                                    
                                                                                                    
                                                                                                    
                                                                                                    
                                                                                                    
                                                                                                    
                                                                                                    
                                                                                                    
                                                                                                    
                                                                                                    
                                                                                                    
                                                                                                    
                                                                                                    
                                                                                                    
                                                                                                    
                                                                                                    
                           
<?xpacket end="w"?></metadata>
<defs>
    <style>
      .cls-1 {
        fill: #f9f4e8;
      }

      .cls-1, .cls-2, .cls-3, .cls-4, .cls-5 {
        fill-rule: evenodd;
      }

      .cls-2 {
        fill: #e8ded1;
      }

      .cls-3 {
        fill: #05220e;
      }

      .cls-4 {
        fill: #093f1a;
      }

      .cls-5 {
        fill: #f5fafd;
      }
    </style>
  </defs>
  <path id="rice" class="cls-1" d="M305.851,202.078C212.818,341.6-148.484,850.37,85.956,1034.41s782.9,184.04,1017.334,0S976.429,341.6,883.4,202.078C747.275-2.066,441.972-2.066,305.851,202.078Z"/>
  <path id="spaces" class="cls-2" d="M420.832,183.251c15.5,48.926,74.816,55.472,104.62,55.472-12.478,10.165-28.34,10.165-31.6,38.159-16.662-35.538-54.915-43.431-94.37-50.845C427.185,214.571,425.459,211.344,420.832,183.251Zm531.326,538.43c15.5,48.926,67.972,69.5,97.782,69.5-12.48,10.165-21.5-6.767-24.76,21.227-16.66-35.538-54.917-43.431-94.372-50.845C958.511,750.1,956.785,749.774,952.158,721.681ZM500.882,341.422c37.028,35.54,64.159,6.381,90.328-7.882-6.092,14.9-20.019,22.487-9.485,48.628-31.637-23.23-69-11.854-107.194.518C493.369,359.361,518.389,363.875,500.882,341.422ZM249.69,903.586c-15.5,48.926-59.287,68.565-89.09,68.565,12.477,10.164,12.81-2.929,16.071,25.066,16.661-35.538,54.914-43.431,94.369-50.845C243.337,934.906,245.063,931.679,249.69,903.586Zm780.94-249.318c-3.94,51.172,32.14,65.671,59.77,76.832-15.38,4.752-9.26,14.317-22.77,39.053-2.14-39.191-39.01-62.558-72.817-84.207C1024.79,685.689,1024.4,682.05,1030.63,654.268ZM194.761,883.441c-32.7,39.56-90.145,23.42-117.78,12.259,7.763,14.1-.786,7.215-8.246,34.393,28.757-26.712,90.44-6.884,129.8,1.016C177.142,910.1,179.951,907.758,194.761,883.441Z"/>
  <path id="seaweed" class="cls-3" d="M992.54,1135.02c62.95-38.74-61.01-502.478-79.911-599.616s-616.508-97.138-635.409,0S134.355,1096.28,197.309,1135.02C285.03,1188.99,904.819,1188.99,992.54,1135.02Z"/>
  <path id="rice_bumps" data-name="rice bumps" class="cls-1" d="M68.261,940c-34.627-12.823-55.5,9.179-36.35,56.9s87.22,100.239,113.381,73.139S102.888,952.824,68.261,940Zm898.844-606.93c-34.627-12.822-55.5,9.18-36.35,56.9s87.215,100.239,113.385,73.142S1001.73,345.894,967.105,333.072ZM1149.41,901.056c35.81-9.009,54.18,15.118,29.99,60.492s-97.53,90.232-120.61,60.472S1113.6,910.064,1149.41,901.056ZM287.747,238.429c35.809-9.009,54.181,15.118,29.994,60.492s-97.533,90.235-120.615,60.473S251.938,247.438,287.747,238.429ZM578.586,30.657c-34.627-12.822-55.5,9.18-36.35,56.9S629.456,187.8,655.617,160.7,613.213,43.48,578.586,30.657Z"/>
  <path id="sparkle" class="cls-4" d="M245.032,997.274l5.663,9.276-11.465,1.36-9.2-8.461ZM694.68,924.622l5.456,8.326-12.208,5.664-5.394-10.718ZM518.409,813.5l5.463,9.692-9.56,6.614-7.3-10.3ZM411.743,927.275l8.661,7.5-5.852,9.282-10.987-9.078ZM875.968,1077.73l-5.663-9.28,11.465-1.36,9.2,8.46ZM689.32,827.378l-5.456-8.326,12.208-5.664,5.394,10.718ZM508.591,1093.5l-5.463-9.69,9.56-6.61,7.3,10.3ZM880.257,962.725l-8.661-7.5,5.852-9.282,10.987,9.078Z"/>
  <path id="salt" class="cls-5" d="M773.968,579.274l-5.663,9.274,11.465,1.363,9.2-8.462ZM664.32,671.622l-5.456,8.326,12.208,5.664,5.394-10.718ZM540.591,584.5l-5.463,9.692,9.56,6.614,7.3-10.3ZM831.257,796.275l-8.661,7.5,5.852,9.283,10.987-9.079ZM406.032,1046.73l5.663-9.28-11.465-1.36-9.2,8.46ZM515.68,954.378l5.456-8.326-12.208-5.664-5.394,10.718ZM639.409,1041.5l5.463-9.69-9.56-6.61-7.3,10.3ZM348.743,829.725l8.661-7.5-5.852-9.282-10.987,9.078Z"/>
</svg>
