<svg xmlns="http://www.w3.org/2000/svg" width="1415" height="1415" viewBox="0 0 1415 1415">
  <metadata><?xpacket begin="﻿" id="W5M0MpCehiHzreSzNTczkc9d"?>
<x:xmpmeta xmlns:x="adobe:ns:meta/" x:xmptk="Adobe XMP Core 5.6-c140 79.160451, 2017/05/06-01:08:21        ">
   <rdf:RDF xmlns:rdf="http://www.w3.org/1999/02/22-rdf-syntax-ns#">
      <rdf:Description rdf:about=""/>
   </rdf:RDF>
</x:xmpmeta>
                                                                                                    
                                                                                                    
                                                                                                    
                                                                                                    
                                                                                                    
                                                                                                    
                                                                                                    
                                                                                                    
                                                                                                    
                                                                                                    
                                                                                                    
                                                                                                    
                                                                                                    
                                                                                                    
                                                                                                    
                                                                                                    
                                                                                                    
                                                                                                    
                                                                                                    
                                                                                                    
                           
<?xpacket end="w"?></metadata>
<defs>
    <style>
      .cls-1 {
        fill: #d7cadf;
      }

      .cls-1, .cls-2, .cls-3, .cls-4 {
        fill-rule: evenodd;
      }

      .cls-2 {
        fill: #cbdde9;
      }

      .cls-3 {
        fill: #7396a3;
      }

      .cls-4 {
        fill: #4b4f58;
      }
    </style>
  </defs>
  <path class="cls-1" d="M688.508,95.175c-58.537,2.369-88.545,58.281-112.359,165.595-6.267,28.241-199.949-50.544-236.467,104.486C315.994,465.82,519.665,566.7,581.5,475.97s173.177,90.035,283.21-31.378c70.434-77.718,154.745,23.888,213.075,8.436s192.3-70.281,184.28-162.279c-8.46-97.02-129.33-140.8-189.89-107.148-89.466,49.717-188.827,45.254-225.014,1.466C797.642,125.154,747.045,92.807,688.508,95.175ZM415.958,867.814C522.381,845.4,543.994,1015.21,609.479,961.7s124.45-41.686,174.708,55.271-123.994,204.92-235.5,189.14c-114.592-16.22-159.937-126.11-233.741-67.27-97.7,77.9-190.454,76.36-221.538,53.94C40.385,1154.53-6.677,1074.47,66.7,1028.29c102.073-64.245,138.751,17.66,202.048-33.747C317.727,954.762,312.5,889.6,415.958,867.814ZM968.031,763.25c68.079,1.535,138.379,20.766,157.169,114.059s64.59-71.262,132.85-44.508,243.31,156.129,95.25,253.919-185.69,80.58-245.3,43.39c-36.21-22.6-138.984,114.76-255.691,10.98-57.462-51.1-288.68-47.55-289.137-137.38C562.425,856.884,699.9,858.758,773.605,884.586S899.957,761.715,968.031,763.25Z"/>
  <path id="Shape_3_copy" data-name="Shape 3 copy" class="cls-2" d="M351.508,610.175c-58.537,2.369-88.545,58.281-112.359,165.6C232.882,804.012,39.2,725.226,2.682,880.256-21.006,980.82,182.665,1081.7,244.5,990.97s176.152,92.67,283.21-31.378c90.966-105.4,154.745,23.888,213.079,8.436s192.294-70.281,184.273-162.279c-8.459-97.02-129.327-140.8-189.89-107.148-89.463,49.717-188.824,45.254-225.011,1.466C460.642,640.154,410.045,607.807,351.508,610.175ZM872.925,954.943C766.5,932.53,754.006,1126.21,688.521,1072.7s-124.45-41.69-174.708,55.27,123.994,204.92,235.5,189.14c114.592-16.22,141.128-66.39,221.987-17.68,88.359,53.22,200.359-15.44,231.439-37.86,53.02-38.25,105.65-113.09,32.28-159.28-102.08-64.24-149.75,18.32-213.04-33.09C973,1029.42,976.386,976.733,872.925,954.943ZM1009.97,407.25C941.9,408.785,871.594,428.016,852.8,521.309S788.215,450.047,719.953,476.8,476.637,632.93,624.7,730.723,809.109,809.156,870,774.105s196.65,91.582,250.39,36.586,293.98-73.148,294.44-162.984c0.75-146.823-136.72-144.949-210.44-119.121S1078.04,405.715,1009.97,407.25Z"/>
  <path class="cls-3" d="M665.23,260.6c-97.945.351-247.441,123.129-242.835,344.765s-34.747,517.347,38.929,521,46.488-92.47,75.539-90.29,35.5,103.9,79.676,102.86,43.922-103.44,74.5-103.44,30.246,102.4,74.426,103.44,50.625-100.68,79.676-102.86S847,1130,920.676,1126.36,955,827,959.605,605.363,814.715,260.949,716.77,260.6,763.176,260.246,665.23,260.6Z"/>
  <path class="cls-4" d="M529.891,528.77c21.163,39.224,79.429,42.5,119.461,11.859C602.7,552.221,562.258,553.836,529.891,528.77Zm317.218,0c-21.163,39.224-79.429,42.5-119.461,11.859C774.3,552.221,814.742,553.836,847.109,528.77ZM661.023,647.938c-0.06,5.132,70.09,9.785,65.6.105C714.162,621.165,661.31,623.455,661.023,647.938Z"/>
</svg>
